<!-- <svg
  width="45"
  height="46"
  viewBox="0 0 45 46"
  fill="none"
  xmlns="http://www.w3.org/2000/svg"
>
  <path
    d="M20.6841 2.24912C21.3176 0.482702 23.8158 0.482699 24.4493 2.24912L29.1836 15.4495C29.3806 15.9988 29.8076 16.4346 30.3528 16.6427L43.3204 21.5935C45.0359 22.2485 45.0359 24.6755 43.3204 25.3304L30.3528 30.2812C29.8076 30.4893 29.3806 30.9252 29.1836 31.4745L24.4493 44.6748C23.8158 46.4412 21.3176 46.4412 20.6841 44.6748L15.9498 31.4745C15.7528 30.9252 15.3258 30.4893 14.7806 30.2812L1.81302 25.3304C0.0974724 24.6755 0.09747 22.2485 1.81301 21.5935L14.7806 16.6427C15.3258 16.4346 15.7528 15.9988 15.9498 15.4495L20.6841 2.24912Z"
    fill="#30489C"
  />
</svg> -->

<svg width="40" height="42" viewBox="0 0 40 42" fill="none" xmlns="http://www.w3.org/2000/svg">
<path d="M17.8751 1.68435C18.4957 -0.111256 21.0352 -0.11126 21.6557 1.68435L25.686 13.3457C25.8764 13.8967 26.2977 14.3371 26.8396 14.5518L38.1033 19.0144C39.7877 19.6817 39.7877 22.0658 38.1033 22.7331L26.8396 27.1957C26.2977 27.4104 25.8764 27.8508 25.686 28.4018L21.6557 40.0631C21.0352 41.8587 18.4957 41.8587 17.8751 40.0631L13.8449 28.4018C13.6545 27.8508 13.2332 27.4104 12.6913 27.1957L1.42758 22.7331C-0.256866 22.0658 -0.256866 19.6817 1.42758 19.0144L12.6913 14.5518C13.2332 14.3371 13.6545 13.8967 13.8449 13.3457L17.8751 1.68435Z" fill="#1F1A17"/>
</svg>
