<svg
  width="20"
  height="21"
  viewBox="0 0 20 21"
  fill="none"
  xmlns="http://www.w3.org/2000/svg"
>
  <path
    d="M8.0398 2.02271C8.67381 0.257406 11.1704 0.257406 11.8044 2.02271L13.2399 6.01966C13.4371 6.56887 13.8644 7.00454 14.4097 7.21243L18.4548 8.75462C20.1715 9.40911 20.1715 11.8377 18.4548 12.4922L14.4097 14.0344C13.8644 14.2423 13.4371 14.678 13.2399 15.2272L11.8044 19.2241C11.1704 20.9894 8.67381 20.9894 8.0398 19.2241L6.6043 15.2272C6.40705 14.678 5.97976 14.2423 5.43449 14.0344L1.38934 12.4922C-0.327363 11.8377 -0.327361 9.40911 1.38935 8.75462L5.43449 7.21243C5.97976 7.00454 6.40705 6.56887 6.6043 6.01966L8.0398 2.02271Z"
    fill="#30489C"
  />
</svg>