<!-- <svg
  width="59"
  height="59"
  viewBox="0 0 59 59"
  fill="none"
  xmlns="http://www.w3.org/2000/svg"
>
  <path
    d="M58.375 51.9583V7.04167C58.375 3.5125 55.4875 0.625 51.9583 0.625H7.04167C3.5125 0.625 0.625 3.5125 0.625 7.04167V51.9583C0.625 55.4875 3.5125 58.375 7.04167 58.375H51.9583C55.4875 58.375 58.375 55.4875 58.375 51.9583ZM18.2708 34.3125L26.2917 43.9696L37.5208 29.5L51.9583 48.75H7.04167L18.2708 34.3125Z"
    fill="#30489C"
  />
</svg> -->

<svg width="70" height="73" viewBox="0 0 70 73" fill="none" xmlns="http://www.w3.org/2000/svg">
<path d="M61.2175 57.6095V15.7534C61.2175 12.4647 58.6246 9.77393 55.4555 9.77393H15.1214C11.9523 9.77393 9.35938 12.4647 9.35938 15.7534V57.6095C9.35938 60.8982 11.9523 63.5889 15.1214 63.5889H55.4555C58.6246 63.5889 61.2175 60.8982 61.2175 57.6095ZM25.2049 41.166L32.4074 50.1651L42.4909 36.6814L55.4555 54.6198H15.1214L25.2049 41.166Z" fill="#1F1A17"/>
</svg>
