<!-- <svg
  width="27"
  height="28"
  viewBox="0 0 27 28"
  fill="none"
  xmlns="http://www.w3.org/2000/svg"
>
  <path
    d="M11.4014 2.24606C12.0374 0.485359 14.5275 0.485357 15.1635 2.24606L17.4783 8.65422C17.6766 9.20312 18.1047 9.63803 18.6504 9.84489L25.0402 12.267C26.7617 12.9195 26.7617 15.3548 25.0402 16.0073L18.6504 18.4294C18.1047 18.6362 17.6766 19.0712 17.4783 19.6201L15.1635 26.0282C14.5275 27.7889 12.0374 27.7889 11.4014 26.0282L9.08665 19.6201C8.88837 19.0712 8.46023 18.6362 7.9145 18.4294L1.52474 16.0073C-0.196733 15.3548 -0.196733 12.9195 1.52474 12.267L7.9145 9.84489C8.46023 9.63803 8.88837 9.20312 9.08665 8.65422L11.4014 2.24606Z"
    fill="#30489C"
  />
</svg> -->

<svg width="24" height="24" viewBox="0 0 24 24" fill="none" xmlns="http://www.w3.org/2000/svg">
<path d="M10.2559 1.40436C10.879 -0.385661 13.4105 -0.385662 14.0336 1.40436L15.891 6.74052C16.0827 7.29119 16.5051 7.73079 17.0477 7.94422L22.4017 10.0503C24.0922 10.7153 24.0922 13.1077 22.4017 13.7726L17.0477 15.8787C16.5051 16.0921 16.0827 16.5317 15.891 17.0824L14.0336 22.4186C13.4105 24.2086 10.879 24.2086 10.2559 22.4186L8.39843 17.0824C8.20675 16.5317 7.78431 16.0921 7.24171 15.8787L1.88772 13.7726C0.197214 13.1077 0.197211 10.7153 1.88772 10.0503L7.2417 7.94422C7.78431 7.73079 8.20675 7.29119 8.39843 6.74052L10.2559 1.40436Z" fill="#1F1A17"/>
</svg>
