<svg
  width="27"
  height="28"
  viewBox="0 0 27 28"
  fill="none"
  xmlns="http://www.w3.org/2000/svg"
>
  <path
    d="M11.4014 2.24606C12.0374 0.485359 14.5275 0.485357 15.1635 2.24606L17.4783 8.65422C17.6766 9.20312 18.1047 9.63803 18.6504 9.84489L25.0402 12.267C26.7617 12.9195 26.7617 15.3548 25.0402 16.0073L18.6504 18.4294C18.1047 18.6362 17.6766 19.0712 17.4783 19.6201L15.1635 26.0282C14.5275 27.7889 12.0374 27.7889 11.4014 26.0282L9.08665 19.6201C8.88837 19.0712 8.46023 18.6362 7.9145 18.4294L1.52474 16.0073C-0.196733 15.3548 -0.196733 12.9195 1.52474 12.267L7.9145 9.84489C8.46023 9.63803 8.88837 9.20312 9.08665 8.65422L11.4014 2.24606Z"
    fill="#30489C"
  />
</svg>