<!-- <svg
  width="60"
  height="47"
  viewBox="0 0 60 47"
  fill="none"
  xmlns="http://www.w3.org/2000/svg"
>
  <path
    d="M53.3334 6.25H30L24.1667 0.5H6.66671C3.42921 0.5 0.862541 3.05875 0.862541 6.25L0.833374 40.75C0.833374 43.9413 3.42921 46.5 6.66671 46.5H53.3334C56.5709 46.5 59.1667 43.9413 59.1667 40.75V12C59.1667 8.80875 56.5709 6.25 53.3334 6.25ZM50.4167 29.25H41.6667V37.875H35.8334V29.25H27.0834V23.5H35.8334V14.875H41.6667V23.5H50.4167V29.25Z"
    fill="#30489C"
  />
</svg> -->
<svg width="63" height="65" viewBox="0 0 63 65" fill="none" xmlns="http://www.w3.org/2000/svg">
<g clip-path="url(#clip0_4809_2992)">
<path d="M52.4855 16.3963H31.5328L26.2946 11.0381H10.58C7.67279 11.0381 5.36799 13.4225 5.36799 16.3963L5.3418 48.5455C5.3418 51.5193 7.67279 53.9037 10.58 53.9037H52.4855C55.3927 53.9037 57.7237 51.5193 57.7237 48.5455V21.7545C57.7237 18.7807 55.3927 16.3963 52.4855 16.3963ZM49.8664 37.8291H42.0091V45.8664H36.7709V37.8291H28.9137V32.4709H36.7709V24.4336H42.0091V32.4709H49.8664V37.8291Z" fill="#1F1A17"/>
</g>
<defs>
<clipPath id="clip0_4809_2992">
<rect width="62.8583" height="64.2984" fill="white" transform="translate(0.103516 0.321777)"/>
</clipPath>
</defs>
</svg>
