<?xml version="1.0" encoding="UTF-8"?>
<svg width="1024px" height="225px" viewBox="0 0 1024 225" version="1.1" xmlns="http://www.w3.org/2000/svg" xmlns:xlink="http://www.w3.org/1999/xlink">
    <title>polygon</title>
    <g id="Page-1" stroke="none" stroke-width="1" fill="none" fill-rule="evenodd">
        <g id="polygon" transform="translate(0.000000, 0.231933)" fill="#FFFFFF" fill-rule="nonzero">
            <path d="M400.611,71.4390665 C406.893,75.2365665 412.209,80.4580665 415.591,87.5783665 C419.457,94.6985665 421.39,103.243067 421.39,112.737067 C421.39,122.230067 419.457,130.300067 415.108,137.420067 C411.242,144.540067 405.443,149.762067 398.195,153.085067 C390.946,156.882067 382.247,158.781067 373.066,158.781067 C367.75,158.781067 362.917,157.831067 358.085,155.933066 C353.252,154.509067 348.903,151.661067 345.521,148.338067 L345.521,197.705067 L317.492,197.705067 L317.492,67.6415665 L341.655,67.6415665 L344.071,78.0846665 C354.702,69.5403665 366.3,65.2681665 378.381,65.2681665 C386.597,65.2681665 394.329,67.1669665 400.611,71.4390665 Z M385.147,130.300067 C389.979,126.028067 392.396,120.331067 392.396,113.211067 C392.396,106.091067 389.979,100.395067 385.63,95.6479665 C381.281,90.9010665 375.482,89.0023665 369.2,89.0023665 C363.884,89.0023665 359.051,89.9517665 355.185,92.3251665 C351.32,94.2238665 348.42,97.5466665 346.004,101.819067 L346.004,123.180067 C347.454,127.452067 350.353,130.774067 353.736,133.148067 C357.602,135.521067 361.951,136.945066 367.267,136.945066 C374.515,136.945066 380.314,134.572067 385.147,130.300067 Z" id="Shape"></path>
            <path d="M437.819,88.0428665 C442.169,81.3973665 447.967,75.7011665 455.699,71.9036665 C463.431,68.1061665 472.13,65.7327665 481.795,65.7327665 C491.46,65.7327665 500.158,67.6315665 507.89,71.9036665 C515.139,75.7011665 520.938,81.3973665 525.287,88.5175665 C529.636,95.6378665 531.569,103.233067 531.569,112.252066 C531.569,121.271067 529.636,128.866067 525.287,135.986066 C520.938,143.106066 515.622,148.802066 507.89,152.600066 C500.641,156.397066 491.46,158.771066 481.795,158.771066 C472.13,158.771066 463.431,156.872067 455.699,153.074067 C447.967,149.277066 442.169,144.055067 437.819,136.935067 C433.953,129.815067 431.537,121.745067 431.537,112.252066 C431.537,103.233067 433.953,95.1631665 437.819,88.0428665 Z M466.331,129.340067 C470.197,134.087066 475.513,135.986066 481.795,135.986066 C488.077,135.986066 493.393,133.612066 497.259,129.340067 C501.125,125.068067 503.058,118.897067 503.058,112.252066 C503.058,105.131067 501.125,99.4352665 497.259,95.1631665 C492.909,90.4163665 488.077,88.0428665 481.312,88.0428665 C475.029,88.0428665 470.197,90.4163665 465.848,94.6884665 C461.982,99.4352665 460.049,105.131067 460.049,112.252066 C460.049,118.897067 461.982,124.593067 466.331,129.340067 Z" id="Shape"></path>
            <polygon id="Path" points="576.999 0.2319335 576.999 156.403066 548.971 156.403066 548.971 0.2319335"></polygon>
            <polygon id="Path" points="692.008 70.0086665 634.985 198.173067 607.924 198.173067 629.186 152.129066 588.594 70.0086665 620.488 70.0086665 643.684 121.274067 666.88 70.0086665"></polygon>
            <path d="M799.285,70.0049665 L799.285,156.397066 C799.285,164.467067 796.869,172.062067 792.036,178.707066 C787.204,185.353067 780.922,190.575066 772.706,194.372067 C764.491,198.169067 755.793,200.068067 746.128,200.068067 C738.879,200.068067 732.597,199.119067 727.281,197.695066 C721.966,195.796066 717.616,193.897066 714.234,191.999066 C710.368,189.625067 706.502,186.777066 702.152,182.980066 L718.583,163.992066 C722.449,167.790066 726.798,170.638067 730.664,172.537067 C734.53,174.435067 739.846,175.859067 745.645,175.859067 C752.893,175.859067 758.692,173.961067 763.525,170.638067 C768.357,167.315067 770.773,162.094066 770.773,155.923067 L770.773,143.581066 C767.874,147.853067 764.008,151.650067 758.209,154.499066 C752.41,157.347067 745.645,158.771067 737.913,158.771067 C730.181,158.771067 722.449,156.872067 715.683,152.600066 C708.918,148.802066 703.602,143.106066 699.253,135.986066 C695.387,128.866067 692.971,121.271067 692.971,112.726067 C692.971,104.182067 694.904,96.1125665 699.253,88.9922665 C703.602,81.8720665 708.918,76.1758665 716.167,71.9036665 C722.932,67.6315665 730.181,65.7327665 737.913,65.7327665 C745.161,65.7327665 751.444,66.6821665 757.243,68.5808665 C763.042,70.4796665 767.391,73.3277665 770.29,76.6504665 L773.19,70.0049665 L799.285,70.0049665 Z M770.773,123.169066 L770.773,101.809067 C768.84,97.5365665 765.941,94.2137665 761.592,91.8403665 C757.243,89.4669665 752.41,88.0429665 746.611,88.0429665 C739.846,88.0429665 734.047,90.4163665 729.214,94.6884665 C724.382,98.9606665 721.965,104.657066 721.965,111.777067 C721.965,118.423067 724.382,124.594066 729.214,129.340067 C734.047,134.087066 739.846,136.461067 746.611,136.461067 C757.726,135.986066 765.941,131.714067 770.773,123.169066 Z" id="Shape"></path>
            <path d="M822.489,88.0529665 C826.839,80.9327665 832.637,75.7112665 840.369,71.4390665 C848.101,67.6415665 856.8,65.2681665 866.465,65.2681665 C876.13,65.2681665 884.828,67.1669665 892.56,71.4390665 C899.809,75.2365665 905.608,80.9327665 909.957,88.0529665 C913.823,95.1732665 916.239,102.768067 916.239,111.787067 C916.239,120.806066 914.306,128.401067 909.957,135.521066 C906.091,142.642066 900.292,148.338066 892.56,152.135066 C885.311,155.933066 876.13,158.306067 866.465,158.306067 C856.8,158.306067 848.101,156.407067 840.369,152.610067 C832.637,148.812067 826.839,143.591067 822.489,136.471067 C818.14,129.350066 816.207,121.281067 816.207,111.312067 C816.207,103.243066 818.14,95.1732665 822.489,88.0529665 Z M850.518,129.350066 C854.384,134.097067 859.699,135.996067 865.981,135.996067 C872.264,135.996067 877.579,133.623066 881.445,129.350066 C885.311,125.078067 887.244,118.907066 887.244,112.262067 C887.244,105.142066 885.311,99.4453665 881.445,95.1732665 C877.579,90.9010665 872.264,88.5276665 865.981,88.5276665 C859.699,88.5276665 854.867,90.9010665 850.518,95.1732665 C846.168,99.4453665 844.235,105.616067 844.235,112.262067 C844.719,118.907066 846.652,124.604067 850.518,129.350066 Z" id="Shape"></path>
            <path d="M1015.3,72.8530665 C1021.1,77.5998665 1023.52,83.7707665 1024,91.3656665 L1024,156.397066 L995.491,156.397066 L995.491,101.809067 C995.008,93.2644665 990.659,88.9922665 982.443,88.9922665 C976.161,88.9922665 970.846,91.8403665 966.98,98.0112665 C963.114,104.182067 961.181,111.777067 961.181,120.796067 L961.181,156.397066 L933.152,156.397066 L933.152,70.0049665 L958.764,70.0049665 L960.697,83.7707665 C964.08,78.0745665 968.429,73.8023665 974.228,70.4796665 C980.027,67.1568665 986.793,65.7327665 994.525,65.7327665 C1002.74,65.7327665 1009.99,68.1061665 1015.3,72.8530665 Z" id="Path"></path>
            <path d="M197.648,68.5917665 C192.815,65.7436665 186.533,65.7436665 181.218,68.5917665 L143.524,90.4272665 L117.912,104.668067 L80.219,126.503067 C75.3865,129.351067 69.1043,129.351067 63.7886,126.503067 L33.8273,109.414067 C28.9948,106.566067 25.6121,101.345067 25.6121,95.6487665 L25.6121,61.9461665 C25.6121,56.2499665 28.5116,51.0284665 33.8273,48.1803665 L63.3053,31.5664665 C68.1378,28.7183665 74.42,28.7183665 79.7357,31.5664665 L109.214,48.1803665 C114.046,51.0284665 117.429,56.2499665 117.429,61.9461665 L117.429,83.7816665 L143.041,69.0664665 L143.041,47.2310665 C143.041,41.5347665 140.142,36.3132665 134.826,33.4651665 L80.219,2.1360765 C75.3865,-0.7120255 69.1043,-0.7120255 63.7886,2.1360765 L8.2152,33.4651665 C2.89948,36.3132665 0,41.5347665 0,47.2310665 L0,110.364067 C0,116.060067 2.89948,121.282066 8.2152,124.130066 L63.7886,155.459067 C68.621,158.307066 74.9033,158.307066 80.219,155.459067 L117.912,134.098067 L143.524,119.383066 L181.218,98.0221665 C186.05,95.1740665 192.332,95.1740665 197.648,98.0221665 L227.126,114.636066 C231.958,117.484066 235.341,122.706066 235.341,128.402066 L235.341,162.104067 C235.341,167.801066 232.442,173.022066 227.126,175.870067 L197.648,192.959067 C192.815,195.807066 186.533,195.807066 181.218,192.959067 L151.74,176.345067 C146.907,173.497067 143.524,168.275067 143.524,162.579067 L143.524,140.744067 L117.912,155.459067 L117.912,177.294067 C117.912,182.990067 120.812,188.212066 126.127,191.060067 L181.701,222.389067 C186.533,225.237067 192.815,225.237067 198.131,222.389067 L253.705,191.060067 C258.537,188.212066 261.92,182.990067 261.92,177.294067 L261.92,114.161066 C261.92,108.465067 259.02,103.244067 253.705,100.396067 L197.648,68.5917665 Z" id="Path"></path>
        </g>
    </g>
</svg>