<?xml version="1.0" encoding="UTF-8"?>
<svg width="2190px" height="409px" viewBox="0 0 2190 409" version="1.1" xmlns="http://www.w3.org/2000/svg" xmlns:xlink="http://www.w3.org/1999/xlink">
    <title>solana</title>
    <g id="Page-1" stroke="none" stroke-width="1" fill="none" fill-rule="evenodd">
        <g id="solana" transform="translate(0.564869, 0.000000)" fill="#FFFFFF" fill-rule="nonzero">
            <path d="M741.535131,224 L824.035131,224 C835.635131,224 845.035131,233.5 845.035131,245.1 C845.035131,256.8 835.635131,266.2 824.035131,266.2 L724.535131,266.2 C722.935131,266.2 721.435131,266.8 720.335131,267.8 L690.335131,293.7 C685.735131,297.7 688.535131,305.2 694.535131,305.2 L819.035131,305.2 C819.035131,305.2 819.135131,305.2 819.135131,305.1 C819.135131,305 819.235131,305 819.235131,305 C820.835131,305.1 822.335131,305.2 823.935131,305.2 C856.935131,305.2 883.735131,278.3 883.735131,245.1 C883.735131,213.6 859.635131,187.7 828.835131,185.2 C828.835131,185.2 828.735131,185.2 828.735131,185.1 C828.735131,185 828.735131,185 828.635131,185 L739.835131,185 C728.235131,185 718.835131,175.5 718.835131,163.9 C718.835131,152.2 728.235131,142.8 739.835131,142.8 L839.135131,142.8 C840.735131,142.8 842.335131,142.2 843.535131,141.1 L871.435131,115.2 C875.835131,111.1 872.935131,103.8 867.035131,103.8 L741.535131,103.8 C741.535131,103.8 741.535131,103.8 741.535131,103.8 C741.535131,103.8 741.535131,103.8 741.535131,103.8 C741.035131,103.8 740.435131,103.8 739.935131,103.8 C706.935131,103.8 680.135131,130.7 680.135131,163.9 C680.135131,197.1 706.935131,224 739.935131,224 C740.435131,224 740.935131,224 741.535131,224 C741.535131,224 741.535131,224 741.535131,224 C741.535131,224 741.535131,224 741.535131,224 Z" id="Path"></path>
            <path d="M1221.73513,103.7 C1218.13513,103.7 1215.23513,106.6 1215.23513,110.3 L1215.23513,298.7 C1215.23513,302.3 1218.13513,305.3 1221.73513,305.3 L1372.73513,305.3 C1374.53513,305.3 1376.23513,304.5 1377.53513,303.2 L1396.43513,282.9 C1400.33513,278.7 1397.43513,271.8 1391.63513,271.8 L1259.83513,271.8 C1256.23513,271.8 1253.33513,268.9 1253.33513,265.2 L1253.33513,110.2 C1253.33513,106.6 1250.43513,103.6 1246.83513,103.6 L1221.73513,103.6 L1221.73513,103.7 Z" id="Path"></path>
            <path d="M979.935131,103.7 L979.935131,103.8 L1117.03513,103.8 L1117.03513,103.8 L1117.61298,103.828429 C1136.64366,104.91237 1151.84313,120.393 1152.63513,139.5 L1152.63513,139.5 L1152.63513,267.7 C1152.63513,287.7 1136.73513,304.1 1116.93513,305 L1116.93513,305 L979.935131,305 L979.935131,305 L979.339373,304.971332 C959.720711,303.87163 944.235131,287.599 944.235131,267.7 L944.235131,267.7 L944.235131,139.4 L944.235131,139.4 L944.2665,138.822151 C945.445511,119.79146 960.828131,104.591 979.935131,103.7 L979.935131,103.7 Z M1091.43513,139.5 L1005.53513,139.5 L1005.53513,139.5 C993.557353,139.994949 983.931336,149.602969 983.253092,161.631045 L983.235131,162 L983.235131,162 L983.235131,242.7 L983.235131,242.7 C983.235131,255.174 992.938121,265.49178 1005.16389,266.182038 L1005.53513,266.2 L1091.43513,266.2 L1091.43513,266.2 C1103.83513,265.7 1113.73513,255.3 1113.73513,242.7 L1113.73513,162 L1113.73513,162 C1113.23513,149.8 1103.53513,140.1 1091.43513,139.5 Z" id="Shape"></path>
            <path d="M1615.93513,298.7 C1615.93513,302.3 1618.83513,305.3 1622.43513,305.3 L1648.03513,305.3 C1651.63513,305.3 1654.53513,302.4 1654.53513,298.7 L1654.53513,142.8 C1654.53513,142.8 1654.53513,142.8 1654.53513,142.8 L1654.53513,142.8 L1654.53513,142.8 C1654.53513,142.8 1654.53513,142.8 1654.53513,142.8 C1654.53513,142.3 1654.53513,141.7 1654.53513,141.2 C1654.53513,121.1 1638.83513,104.7 1619.23513,103.9 C1619.23513,103.9 1619.23513,103.9 1619.23513,103.9 C1619.23513,103.9 1619.23513,103.9 1619.23513,103.9 L1487.73513,103.9 C1487.73513,103.9 1487.73513,103.9 1487.73513,103.9 C1487.73513,103.9 1487.73513,103.9 1487.73513,103.9 C1487.23513,103.9 1486.63513,103.9 1486.13513,103.9 C1465.73513,103.9 1449.23513,120.6 1449.23513,141.3 C1449.23513,141.8 1449.23513,142.4 1449.23513,142.9 C1449.23513,142.9 1449.23513,142.9 1449.23513,142.9 C1449.23513,142.9 1449.23513,142.9 1449.23513,142.9 L1449.23513,298.8 C1449.23513,302.4 1452.13513,305.4 1455.73513,305.4 L1481.33513,305.4 C1484.93513,305.4 1487.83513,302.5 1487.83513,298.8 L1487.83513,233.9 C1487.83513,230.3 1490.73513,227.3 1494.33513,227.3 L1609.73513,227.3 C1613.33513,227.3 1616.23513,230.2 1616.23513,233.9 L1616.23513,298.7 L1615.93513,298.7 Z M1487.63513,191.4 L1487.63513,159 C1487.63513,146.4 1497.73513,136.2 1510.13513,136.2 L1593.53513,136.2 C1605.93513,136.2 1616.03513,146.4 1616.03513,159 L1616.03513,191.4 C1616.03513,195 1613.13513,198 1609.53513,198 L1494.13513,198 C1490.53513,198 1487.63513,195.1 1487.63513,191.4 Z" id="Shape"></path>
            <path d="M2156.43513,305.3 C2152.83513,305.3 2149.93513,302.4 2149.93513,298.7 L2149.93513,233.8 C2149.93513,230.2 2147.03513,227.2 2143.43513,227.2 L2026.73513,227.2 C2023.13513,227.2 2020.23513,230.1 2020.23513,233.8 L2020.23513,298.7 C2020.23513,302.3 2017.33513,305.3 2013.73513,305.3 L1987.93513,305.3 C1984.33513,305.3 1981.43513,302.4 1981.43513,298.7 L1981.43513,142.8 L1981.43513,142.8 L1981.43513,142.8 C1981.43513,142.8 1981.43513,142.8 1981.43513,142.8 C1981.43513,142.8 1981.43513,142.8 1981.43513,142.8 C1981.43513,142.3 1981.43513,141.7 1981.43513,141.2 C1981.43513,120.6 1998.13513,103.8 2018.73513,103.8 C2019.23513,103.8 2019.83513,103.8 2020.33513,103.8 C2020.33513,103.8 2020.33513,103.8 2020.33513,103.8 C2020.33513,103.8 2020.33513,103.8 2020.33513,103.8 L2153.23513,103.8 C2153.23513,103.8 2153.23513,103.8 2153.23513,103.8 C2153.23513,103.8 2153.23513,103.8 2153.23513,103.8 C2173.03513,104.7 2188.93513,121.1 2188.93513,141.1 C2188.93513,141.6 2188.93513,142.2 2188.93513,142.7 C2188.93513,142.7 2188.93513,142.7 2188.93513,142.7 C2188.93513,142.7 2188.93513,142.7 2188.93513,142.7 C2188.93513,142.7 2188.93513,142.7 2188.93513,142.7 L2188.93513,298.6 C2188.93513,302.2 2186.03513,305.2 2182.43513,305.2 L2156.43513,305.2 L2156.43513,305.3 Z M2020.23513,159 L2020.23513,191.4 C2020.23513,195 2023.13513,198 2026.73513,198 L2143.43513,198 C2147.03513,198 2149.93513,195.1 2149.93513,191.4 L2149.93513,159 C2149.93513,146.4 2139.73513,136.2 2127.23513,136.2 L2042.93513,136.2 C2030.33513,136.2 2020.23513,146.4 2020.23513,159 Z" id="Shape"></path>
            <path d="M1750.93513,103.7 C1752.83513,103.7 1754.63513,104.5 1755.83513,106 L1870.63513,242.9 C1874.53513,247.5 1882.03513,244.7 1882.03513,238.6 L1882.03513,110.3 C1882.03513,106.7 1884.93513,103.7 1888.53513,103.7 L1914.13513,103.7 C1917.73513,103.7 1920.63513,106.6 1920.63513,110.3 L1920.63513,298.7 C1920.63513,302.3 1917.73513,305.3 1914.13513,305.3 L1882.33513,305.3 C1882.23513,305.3 1882.13513,305.2 1882.13513,305.1 C1882.13513,305 1882.13513,305 1882.03513,304.9 L1765.23513,169 C1761.33513,164.4 1753.83513,167.3 1753.83513,173.3 L1753.83513,298.8 C1753.83513,302.4 1750.93513,305.4 1747.33513,305.4 L1721.53513,305.4 C1717.93513,305.4 1715.03513,302.5 1715.03513,298.8 L1715.03513,110.3 C1715.03513,106.7 1717.93513,103.7 1721.53513,103.7 L1750.93513,103.7 Z" id="Path"></path>
            <path d="M84.8351312,312.2 C88.0351312,309 92.3351312,307.2 96.8351312,307.2 L513.335131,307.2 C520.935131,307.2 524.735131,316.4 519.335131,321.7 L437.035131,404 C433.835131,407.2 429.535131,409 425.035131,409 L8.53513121,409 C0.935131203,409 -2.86486879,399.8 2.53513121,394.5 L84.8351312,312.2 Z" id="Path"></path>
            <path d="M84.8351312,5 C88.0351312,1.8 92.3351312,0 96.8351312,0 L513.335131,0 C520.935131,0 524.735131,9.2 519.335131,14.5 L437.035131,96.7 C433.835131,99.9 429.535131,101.7 425.035131,101.7 L8.53513121,101.7 C0.935131203,101.7 -2.86486879,92.5 2.53513121,87.2 L84.8351312,5 Z" id="Path"></path>
            <path d="M437.035131,157.6 C433.835131,154.4 429.535131,152.6 425.035131,152.6 L8.53513121,152.6 C0.935131203,152.6 -2.86486879,161.8 2.53513121,167.1 L84.8351312,249.3 C88.0351312,252.5 92.3351312,254.3 96.8351312,254.3 L513.335131,254.3 C520.935131,254.3 524.735131,245.1 519.335131,239.8 L437.035131,157.6 Z" id="Path"></path>
        </g>
    </g>
</svg>