<svg width="753" height="765" viewBox="0 0 753 765" fill="none" xmlns="http://www.w3.org/2000/svg">
<g filter="url(#filter0_f_4809_2957)">
<mask id="mask0_4809_2957" style="mask-type:alpha" maskUnits="userSpaceOnUse" x="37" y="37" width="679" height="691">
<path fill-rule="evenodd" clip-rule="evenodd" d="M434.896 53.7035C530.671 98.8246 490.885 248.162 540.024 342.571C563.443 387.566 620.978 401.748 640.444 448.621C675.495 533.019 755.556 642.682 691.621 707.595C627.748 772.444 525.46 660.582 434.896 657.311C351.395 654.295 150.822 770.568 95.2849 707.595C38.807 643.555 46.0281 533.948 37.9609 448.621C27.83 341.465 100.131 254.133 145.53 156.719C190.769 59.6467 338.552 8.31451 434.896 53.7035Z" fill="#D6D6F4"/>
</mask>
<g mask="url(#mask0_4809_2957)">
<g filter="url(#filter1_f_4809_2957)">
<ellipse rx="195.305" ry="195.084" transform="matrix(-0.656334 -0.754471 0.748766 -0.662835 48.4064 217.753)" fill="#C0E5FF"/>
</g>
<g filter="url(#filter2_f_4809_2957)">
<ellipse rx="195.305" ry="195.084" transform="matrix(-0.656334 -0.754471 0.748766 -0.662835 178.285 538.116)" fill="#FFD0EF"/>
</g>
<g filter="url(#filter3_f_4809_2957)">
<ellipse rx="196.02" ry="262.883" transform="matrix(0.118845 -0.992913 0.992664 0.120906 434.7 311.129)" fill="#F5D2B1"/>
</g>
<g filter="url(#filter4_f_4809_2957)">
<ellipse rx="196.02" ry="262.883" transform="matrix(0.118845 -0.992913 0.992664 0.120906 782.379 676.581)" fill="#CCEDC6"/>
</g>
</g>
</g>
<defs>
<filter id="filter0_f_4809_2957" x="0" y="0" width="752.637" height="764.78" filterUnits="userSpaceOnUse" color-interpolation-filters="sRGB">
<feFlood flood-opacity="0" result="BackgroundImageFix"/>
<feBlend mode="normal" in="SourceGraphic" in2="BackgroundImageFix" result="shape"/>
<feGaussianBlur stdDeviation="18.5" result="effect1_foregroundBlur_4809_2957"/>
</filter>
<filter id="filter1_f_4809_2957" x="-270.938" y="-103.293" width="638.688" height="642.093" filterUnits="userSpaceOnUse" color-interpolation-filters="sRGB">
<feFlood flood-opacity="0" result="BackgroundImageFix"/>
<feBlend mode="normal" in="SourceGraphic" in2="BackgroundImageFix" result="shape"/>
<feGaussianBlur stdDeviation="62.5" result="effect1_foregroundBlur_4809_2957"/>
</filter>
<filter id="filter2_f_4809_2957" x="-141.059" y="217.07" width="638.688" height="642.093" filterUnits="userSpaceOnUse" color-interpolation-filters="sRGB">
<feFlood flood-opacity="0" result="BackgroundImageFix"/>
<feBlend mode="normal" in="SourceGraphic" in2="BackgroundImageFix" result="shape"/>
<feGaussianBlur stdDeviation="62.5" result="effect1_foregroundBlur_4809_2957"/>
</filter>
<filter id="filter3_f_4809_2957" x="47.6914" y="-11.1089" width="774.018" height="644.477" filterUnits="userSpaceOnUse" color-interpolation-filters="sRGB">
<feFlood flood-opacity="0" result="BackgroundImageFix"/>
<feBlend mode="normal" in="SourceGraphic" in2="BackgroundImageFix" result="shape"/>
<feGaussianBlur stdDeviation="62.5" result="effect1_foregroundBlur_4809_2957"/>
</filter>
<filter id="filter4_f_4809_2957" x="395.371" y="354.342" width="774.018" height="644.477" filterUnits="userSpaceOnUse" color-interpolation-filters="sRGB">
<feFlood flood-opacity="0" result="BackgroundImageFix"/>
<feBlend mode="normal" in="SourceGraphic" in2="BackgroundImageFix" result="shape"/>
<feGaussianBlur stdDeviation="62.5" result="effect1_foregroundBlur_4809_2957"/>
</filter>
</defs>
</svg>
