<svg width="783" height="840" viewBox="0 0 783 840" fill="none" xmlns="http://www.w3.org/2000/svg">
<g filter="url(#filter0_f_4809_2963)">
<mask id="mask0_4809_2963" style="mask-type:alpha" maskUnits="userSpaceOnUse" x="-43" y="0" width="809" height="840">
<path fill-rule="evenodd" clip-rule="evenodd" d="M326.5 2.01251C450.242 -16.5073 530.478 118.254 651.117 151.619C757.214 180.962 794.329 359.466 743.46 457.79C692.927 555.461 543.489 511.04 442.891 554.088C404.611 570.469 383.32 606.256 347.349 627.292C225.216 698.719 101.957 903.893 -12.3321 820.314C-119.401 742.016 85.9253 587.728 115.562 457.79C133.055 381.096 51.4394 264.201 122.13 230.79C201.687 193.188 239.582 15.021 326.5 2.01251Z" fill="#FFD79B"/>
</mask>
<g mask="url(#mask0_4809_2963)">
<g filter="url(#filter1_f_4809_2963)">
<ellipse cx="208" cy="523.708" rx="139" ry="140" transform="rotate(-180 208 523.708)" fill="#A381DA"/>
</g>
<g filter="url(#filter2_f_4809_2963)">
<ellipse cx="440" cy="604.283" rx="139" ry="140" transform="rotate(-180 440 604.283)" fill="#71CEE6"/>
</g>
<g filter="url(#filter3_f_4809_2963)">
<ellipse rx="139.556" ry="188.603" transform="matrix(-0.664484 -0.747303 0.742548 -0.669793 440 358.527)" fill="#F9DF83"/>
</g>
<g filter="url(#filter4_f_4809_2963)">
<ellipse rx="139.556" ry="188.603" transform="matrix(-0.664484 -0.747303 0.742548 -0.669793 798.779 342.413)" fill="#CCEDC6"/>
</g>
</g>
</g>
<defs>
<filter id="filter0_f_4809_2963" x="52" y="161.596" width="731" height="599.688" filterUnits="userSpaceOnUse" color-interpolation-filters="sRGB">
<feFlood flood-opacity="0" result="BackgroundImageFix"/>
<feBlend mode="normal" in="SourceGraphic" in2="BackgroundImageFix" result="shape"/>
<feGaussianBlur stdDeviation="8.5" result="effect1_foregroundBlur_4809_2963"/>
</filter>
<filter id="filter1_f_4809_2963" x="-56" y="258.708" width="528" height="530" filterUnits="userSpaceOnUse" color-interpolation-filters="sRGB">
<feFlood flood-opacity="0" result="BackgroundImageFix"/>
<feBlend mode="normal" in="SourceGraphic" in2="BackgroundImageFix" result="shape"/>
<feGaussianBlur stdDeviation="62.5" result="effect1_foregroundBlur_4809_2963"/>
</filter>
<filter id="filter2_f_4809_2963" x="176" y="339.283" width="528" height="530" filterUnits="userSpaceOnUse" color-interpolation-filters="sRGB">
<feFlood flood-opacity="0" result="BackgroundImageFix"/>
<feBlend mode="normal" in="SourceGraphic" in2="BackgroundImageFix" result="shape"/>
<feGaussianBlur stdDeviation="62.5" result="effect1_foregroundBlur_4809_2963"/>
</filter>
<filter id="filter3_f_4809_2963" x="147.016" y="69.71" width="585.969" height="577.634" filterUnits="userSpaceOnUse" color-interpolation-filters="sRGB">
<feFlood flood-opacity="0" result="BackgroundImageFix"/>
<feBlend mode="normal" in="SourceGraphic" in2="BackgroundImageFix" result="shape"/>
<feGaussianBlur stdDeviation="62.5" result="effect1_foregroundBlur_4809_2963"/>
</filter>
<filter id="filter4_f_4809_2963" x="505.795" y="53.5957" width="585.969" height="577.634" filterUnits="userSpaceOnUse" color-interpolation-filters="sRGB">
<feFlood flood-opacity="0" result="BackgroundImageFix"/>
<feBlend mode="normal" in="SourceGraphic" in2="BackgroundImageFix" result="shape"/>
<feGaussianBlur stdDeviation="62.5" result="effect1_foregroundBlur_4809_2963"/>
</filter>
</defs>
</svg>
