<svg width="24" height="24" viewBox="0 0 24 24" fill="none" xmlns="http://www.w3.org/2000/svg">
<path d="M10.2559 1.40436C10.879 -0.385661 13.4105 -0.385662 14.0336 1.40436L15.891 6.74052C16.0827 7.29119 16.5051 7.73079 17.0477 7.94422L22.4017 10.0503C24.0922 10.7153 24.0922 13.1077 22.4017 13.7726L17.0477 15.8787C16.5051 16.0921 16.0827 16.5317 15.891 17.0824L14.0336 22.4186C13.4105 24.2086 10.879 24.2086 10.2559 22.4186L8.39843 17.0824C8.20675 16.5317 7.78431 16.0921 7.24171 15.8787L1.88772 13.7726C0.197214 13.1077 0.197211 10.7153 1.88772 10.0503L7.2417 7.94422C7.78431 7.73079 8.20675 7.29119 8.39843 6.74052L10.2559 1.40436Z" fill="#FFF"/>
</svg>
