<svg width="40" height="42" viewBox="0 0 40 42" fill="none" xmlns="http://www.w3.org/2000/svg">
<path d="M17.8751 1.68435C18.4957 -0.111256 21.0352 -0.11126 21.6557 1.68435L25.686 13.3457C25.8764 13.8967 26.2977 14.3371 26.8396 14.5518L38.1033 19.0144C39.7877 19.6817 39.7877 22.0658 38.1033 22.7331L26.8396 27.1957C26.2977 27.4104 25.8764 27.8508 25.686 28.4018L21.6557 40.0631C21.0352 41.8587 18.4957 41.8587 17.8751 40.0631L13.8449 28.4018C13.6545 27.8508 13.2332 27.4104 12.6913 27.1957L1.42758 22.7331C-0.256866 22.0658 -0.256866 19.6817 1.42758 19.0144L12.6913 14.5518C13.2332 14.3371 13.6545 13.8967 13.8449 13.3457L17.8751 1.68435Z" fill="#FFF"/>
</svg>
