<svg xmlns="http://www.w3.org/2000/svg" viewBox="0 0 1199.14 299.99">
<defs>
<style>.cls-1{fill:#fff;}</style>
</defs><g id="Слой_2" data-name="Слой 2">
<g id="Слой_1-2" data-name="Слой 1">
<path class="cls-1" d="M43.55,223.22c66,10.71,93.28,10.9,103.72.68-3.6-1.7-7.59,1.78-11.68-1.23,23.27-8,47.58-13,66.51-30.22-1.24-1-1.84-1.88-2.39-1.85C163.09,192.68,129,188.51,96,168.1,74.79,154.94,47.54,152.78,21.76,160,2.84,165.21-2.82,175.76,1.24,194.7c6.48,30.21,21.43,55,45.53,74.41,3.08,2.47,8.43,4.74,6.67,9.76-3.63,10.38,3.74,12,10.35,14,24,7.45,48.6,8,73.39,6.25,13.14-.92,26.12-2.7,38.51-7.46,5.35-2.05,11.68-5.94,7.38-11.53-6.39-8.29-.92-11.49,3.78-15.85a167.41,167.41,0,0,0,38.43-53.1,158.89,158.89,0,0,0,12.7-42.1C180.13,245.21,103.43,247,43.55,223.22Z"/><path class="cls-1" d="M284.17,93.57C280.51,45.31,236.28,0,236.28,0c.65,13.2-8.55,26.93-15.72,35.54A100.6,100.6,0,0,0,199.47,78c-7.33,33,6.61,53.46,20.19,65.06,6.2,6.36,13.08,11,19.57,12.51a6,6,0,0,0,4.89-1.08c17-6.38,27.27-19.23,33.09-29.53A55.48,55.48,0,0,0,284.17,93.57Z"/><path class="cls-1" d="M347.43,223.22c66,10.71,93.28,10.9,103.72.68-3.6-1.7-7.59,1.78-11.68-1.23,23.27-8,47.58-13,66.51-30.22-1.24-1-1.84-1.88-2.38-1.85-36.63,2.08-70.76-2.09-103.69-22.5-21.24-13.16-48.49-15.32-74.27-8.15-18.92,5.26-24.58,15.81-20.52,34.75,6.48,30.21,21.44,55,45.53,74.41,3.08,2.47,8.44,4.74,6.68,9.76-3.64,10.38,3.74,12,10.35,14,24,7.45,48.59,8,73.38,6.25,13.15-.92,26.12-2.7,38.51-7.46,5.35-2.05,11.68-5.94,7.38-11.53-6.38-8.29-.92-11.49,3.79-15.85a167.54,167.54,0,0,0,38.42-53.1,158.52,158.52,0,0,0,12.7-42.1C484,245.21,407.31,247,347.43,223.22Z"/><path class="cls-1" d="M588.05,93.57C584.4,45.31,540.16,0,540.16,0c.65,13.2-8.54,26.93-15.72,35.54A100.72,100.72,0,0,0,503.35,78c-7.33,33,6.61,53.46,20.19,65.06,6.21,6.36,13.08,11,19.57,12.51a6,6,0,0,0,4.9-1.08c17-6.38,27.26-19.23,33.08-29.53A55.4,55.4,0,0,0,588.05,93.57Z"/><path class="cls-1" d="M654.48,223.22c66,10.71,93.28,10.9,103.72.68-3.6-1.7-7.59,1.78-11.68-1.23,23.27-8,47.58-13,66.51-30.22-1.24-1-1.84-1.88-2.38-1.85-36.63,2.08-70.76-2.09-103.7-22.5-21.23-13.16-48.48-15.32-74.26-8.15-18.92,5.26-24.58,15.81-20.52,34.75,6.48,30.21,21.43,55,45.53,74.41,3.08,2.47,8.43,4.74,6.68,9.76-3.64,10.38,3.73,12,10.34,14,24,7.45,48.6,8,73.39,6.25,13.14-.92,26.12-2.7,38.51-7.46,5.35-2.05,11.68-5.94,7.38-11.53-6.38-8.29-.92-11.49,3.78-15.85a167.41,167.41,0,0,0,38.43-53.1,158.89,158.89,0,0,0,12.7-42.1C791.06,245.21,714.36,247,654.48,223.22Z"/><path class="cls-1" d="M895.1,93.57C891.44,45.31,847.21,0,847.21,0c.65,13.2-8.55,26.93-15.72,35.54A100.6,100.6,0,0,0,810.4,78c-7.33,33,6.61,53.46,20.19,65.06,6.2,6.36,13.08,11,19.57,12.51a6,6,0,0,0,4.89-1.08c17-6.38,27.27-19.23,33.09-29.53A55.48,55.48,0,0,0,895.1,93.57Z"/><path class="cls-1" d="M958.36,223.22c66,10.71,93.28,10.9,103.72.68-3.6-1.7-7.59,1.78-11.68-1.23,23.27-8,47.58-13,66.51-30.22-1.23-1-1.83-1.88-2.38-1.85-36.63,2.08-70.76-2.09-103.69-22.5-21.24-13.16-48.49-15.32-74.27-8.15-18.92,5.26-24.57,15.81-20.52,34.75,6.48,30.21,21.44,55,45.53,74.41,3.08,2.47,8.44,4.74,6.68,9.76-3.64,10.38,3.74,12,10.35,14,24,7.45,48.59,8,73.38,6.25,13.15-.92,26.13-2.7,38.51-7.46,5.36-2.05,11.68-5.94,7.38-11.53-6.38-8.29-.92-11.49,3.79-15.85a167.54,167.54,0,0,0,38.42-53.1,158.52,158.52,0,0,0,12.7-42.1C1094.94,245.21,1018.24,247,958.36,223.22Z"/><path class="cls-1" d="M1199,93.57C1195.33,45.31,1151.1,0,1151.1,0c.64,13.2-8.55,26.93-15.73,35.54A100.72,100.72,0,0,0,1114.28,78c-7.33,33,6.61,53.46,20.19,65.06,6.21,6.36,13.08,11,19.57,12.51a6,6,0,0,0,4.9-1.08c17-6.38,27.26-19.23,33.08-29.53A55.4,55.4,0,0,0,1199,93.57Z"/></g></g></svg>