<svg version="1.1" id="Capa_1" xmlns="http://www.w3.org/2000/svg" xmlns:xlink="http://www.w3.org/1999/xlink" x="0px" y="0px"
	 width="358.635px" height="358.635px" viewBox="0 0 358.635 358.635" style="enable-background:new 0 0 358.635 358.635;"
	 xml:space="preserve" fill='white'>
<g>
	<g>
		<path d="M346.975,336.987c-4.154-4.254-12.083-13.256-18.521-25.729c-12.082-23.414-13.847-48.069-5.248-73.283
			c8.869-26.002,13.198-50.95,12.867-74.155l0.011-0.896C336.083,73.087,262.997,0,173.161,0
			C83.326,0.001,10.239,73.088,10.239,162.925c0,89.835,73.086,162.922,162.922,162.922c44.907,0,86.735-17.883,117.779-50.354
			c0.958,16.992,5.65,33.58,13.948,49.299c8.421,15.955,18.563,27.145,23.86,32.395c0.938,0.931,2.204,1.449,3.521,1.449
			c0.072,0,0.146-0.002,0.22-0.006c1.394-0.061,2.697-0.701,3.599-1.766l11.126-13.152
			C348.877,341.743,348.775,338.833,346.975,336.987z M103.896,122.934c-4.748,8.225-13.604,13.334-23.113,13.334
			c-4.652,0-9.253-1.236-13.305-3.575c-6.167-3.561-10.579-9.31-12.421-16.188c-1.843-6.878-0.896-14.063,2.665-20.231
			C62.47,88.049,71.326,82.94,80.835,82.94c4.651,0,9.252,1.236,13.303,3.574C106.869,93.868,111.247,110.207,103.896,122.934z
			 M55.056,209.343c1.843-6.878,6.254-12.626,12.42-16.188c4.053-2.338,8.655-3.575,13.307-3.575
			c9.507,0,18.364,5.108,23.113,13.334c7.351,12.729,2.973,29.065-9.756,36.419c-4.054,2.34-8.655,3.576-13.306,3.576
			c-9.508,0-18.364-5.109-23.113-13.336C54.16,223.407,53.214,216.222,55.056,209.343z M173.161,242.903L173.161,242.903
			c7.122,0,13.816,2.771,18.853,7.81c5.034,5.035,7.808,11.729,7.808,18.854c0,14.7-11.959,26.659-26.659,26.659
			c-14.699,0-26.658-11.959-26.658-26.659C146.504,254.865,158.462,242.903,173.161,242.903z M173.161,82.944
			c-14.699,0-26.658-11.959-26.658-26.659c0-14.701,11.959-26.661,26.658-26.661c14.7,0,26.659,11.96,26.659,26.661
			C199.82,70.985,187.861,82.944,173.161,82.944z M173.161,128.12c19.192,0,34.807,15.613,34.807,34.806
			c0,19.19-15.613,34.804-34.807,34.804c-19.191,0-34.804-15.612-34.804-34.804C138.358,143.733,153.97,128.12,173.161,128.12z
			 M278.848,132.692c-4.056,2.34-8.655,3.576-13.309,3.576c-9.508,0-18.364-5.109-23.114-13.335
			c-7.352-12.728-2.974-29.064,9.757-36.418c4.053-2.34,8.652-3.576,13.306-3.576c9.509,0,18.366,5.109,23.115,13.334
			C295.953,109.005,291.576,125.341,278.848,132.692z M242.426,202.915c4.749-8.225,13.604-13.334,23.112-13.334
			c4.653,0,9.254,1.236,13.309,3.576c6.152,3.554,10.56,9.304,12.403,16.188c1.848,6.89,0.905,14.072-2.647,20.229
			c-4.749,8.226-13.606,13.334-23.115,13.334c-4.65,0-9.252-1.235-13.303-3.573C239.454,231.981,235.077,215.644,242.426,202.915z"
			/>
	</g>
</g>
<g>
</g>
<g>
</g>
<g>
</g>
<g>
</g>
<g>
</g>
<g>
</g>
<g>
</g>
<g>
</g>
<g>
</g>
<g>
</g>
<g>
</g>
<g>
</g>
<g>
</g>
<g>
</g>
<g>
</g>
</svg>
