<svg width="156" height="147" viewBox="0 0 156 147" fill="none" xmlns="http://www.w3.org/2000/svg">
<rect x="0.5" y="0.5" width="154.419" height="146" rx="7.5" fill="white" stroke="#30489C"/>
<path d="M118.439 115.87H116.039V115H121.829V115.87H119.429V122H118.439V115.87ZM122.651 116.7H123.611V122H122.651V116.7ZM123.131 115.68C122.945 115.68 122.788 115.62 122.661 115.5C122.541 115.38 122.481 115.233 122.481 115.06C122.481 114.887 122.541 114.74 122.661 114.62C122.788 114.493 122.945 114.43 123.131 114.43C123.318 114.43 123.471 114.49 123.591 114.61C123.718 114.723 123.781 114.867 123.781 115.04C123.781 115.22 123.718 115.373 123.591 115.5C123.471 115.62 123.318 115.68 123.131 115.68ZM132.074 116.65C132.741 116.65 133.268 116.843 133.654 117.23C134.048 117.617 134.244 118.19 134.244 118.95V122H133.284V119.06C133.284 118.547 133.164 118.16 132.924 117.9C132.691 117.64 132.354 117.51 131.914 117.51C131.428 117.51 131.041 117.663 130.754 117.97C130.468 118.27 130.324 118.703 130.324 119.27V122H129.364V119.06C129.364 118.547 129.244 118.16 129.004 117.9C128.771 117.64 128.434 117.51 127.994 117.51C127.508 117.51 127.121 117.663 126.834 117.97C126.548 118.27 126.404 118.703 126.404 119.27V122H125.444V116.7H126.364V117.49C126.558 117.217 126.811 117.01 127.124 116.87C127.438 116.723 127.794 116.65 128.194 116.65C128.608 116.65 128.974 116.733 129.294 116.9C129.614 117.067 129.861 117.31 130.034 117.63C130.234 117.323 130.511 117.083 130.864 116.91C131.224 116.737 131.628 116.65 132.074 116.65ZM140.83 119.38C140.83 119.453 140.823 119.55 140.81 119.67H136.51C136.57 120.137 136.773 120.513 137.12 120.8C137.473 121.08 137.91 121.22 138.43 121.22C139.063 121.22 139.573 121.007 139.96 120.58L140.49 121.2C140.25 121.48 139.95 121.693 139.59 121.84C139.237 121.987 138.84 122.06 138.4 122.06C137.84 122.06 137.343 121.947 136.91 121.72C136.477 121.487 136.14 121.163 135.9 120.75C135.667 120.337 135.55 119.87 135.55 119.35C135.55 118.837 135.663 118.373 135.89 117.96C136.123 117.547 136.44 117.227 136.84 117C137.247 116.767 137.703 116.65 138.21 116.65C138.717 116.65 139.167 116.767 139.56 117C139.96 117.227 140.27 117.547 140.49 117.96C140.717 118.373 140.83 118.847 140.83 119.38ZM138.21 117.46C137.75 117.46 137.363 117.6 137.05 117.88C136.743 118.16 136.563 118.527 136.51 118.98H139.91C139.857 118.533 139.673 118.17 139.36 117.89C139.053 117.603 138.67 117.46 138.21 117.46Z" fill="#30489C"/>
<path d="M26.7793 18C27.6859 18 28.3993 18.2167 28.9193 18.65C29.4393 19.0833 29.6993 19.68 29.6993 20.44C29.6993 21.2 29.4393 21.7967 28.9193 22.23C28.3993 22.6633 27.6859 22.88 26.7793 22.88H25.0493V25H24.0493V18H26.7793ZM26.7493 22.01C27.3826 22.01 27.8659 21.8767 28.1993 21.61C28.5326 21.3367 28.6993 20.9467 28.6993 20.44C28.6993 19.9333 28.5326 19.5467 28.1993 19.28C27.8659 19.0067 27.3826 18.87 26.7493 18.87H25.0493V22.01H26.7493ZM31.8605 20.59C32.0272 20.2833 32.2739 20.05 32.6005 19.89C32.9272 19.73 33.3239 19.65 33.7905 19.65V20.58C33.7372 20.5733 33.6639 20.57 33.5705 20.57C33.0505 20.57 32.6405 20.7267 32.3405 21.04C32.0472 21.3467 31.9005 21.7867 31.9005 22.36V25H30.9405V19.7H31.8605V20.59ZM34.9737 19.7H35.9337V25H34.9737V19.7ZM35.4537 18.68C35.2671 18.68 35.1104 18.62 34.9837 18.5C34.8637 18.38 34.8037 18.2333 34.8037 18.06C34.8037 17.8867 34.8637 17.74 34.9837 17.62C35.1104 17.4933 35.2671 17.43 35.4537 17.43C35.6404 17.43 35.7937 17.49 35.9137 17.61C36.0404 17.7233 36.1037 17.8667 36.1037 18.04C36.1037 18.22 36.0404 18.3733 35.9137 18.5C35.7937 18.62 35.6404 18.68 35.4537 18.68ZM40.0767 25.06C39.5367 25.06 39.0534 24.9433 38.6267 24.71C38.2067 24.4767 37.8767 24.1567 37.6367 23.75C37.3967 23.3367 37.2767 22.87 37.2767 22.35C37.2767 21.83 37.3967 21.3667 37.6367 20.96C37.8767 20.5467 38.2067 20.2267 38.6267 20C39.0534 19.7667 39.5367 19.65 40.0767 19.65C40.5567 19.65 40.9834 19.7467 41.3567 19.94C41.7367 20.1333 42.03 20.4133 42.2367 20.78L41.5067 21.25C41.34 20.9967 41.1334 20.8067 40.8867 20.68C40.64 20.5533 40.3667 20.49 40.0667 20.49C39.72 20.49 39.4067 20.5667 39.1267 20.72C38.8534 20.8733 38.6367 21.0933 38.4767 21.38C38.3234 21.66 38.2467 21.9833 38.2467 22.35C38.2467 22.7233 38.3234 23.0533 38.4767 23.34C38.6367 23.62 38.8534 23.8367 39.1267 23.99C39.4067 24.1433 39.72 24.22 40.0667 24.22C40.3667 24.22 40.64 24.1567 40.8867 24.03C41.1334 23.9033 41.34 23.7133 41.5067 23.46L42.2367 23.92C42.03 24.2867 41.7367 24.57 41.3567 24.77C40.9834 24.9633 40.5567 25.06 40.0767 25.06ZM48.1915 22.38C48.1915 22.4533 48.1848 22.55 48.1715 22.67H43.8715C43.9315 23.1367 44.1348 23.5133 44.4815 23.8C44.8348 24.08 45.2715 24.22 45.7915 24.22C46.4248 24.22 46.9348 24.0067 47.3215 23.58L47.8515 24.2C47.6115 24.48 47.3115 24.6933 46.9515 24.84C46.5981 24.9867 46.2015 25.06 45.7615 25.06C45.2015 25.06 44.7048 24.9467 44.2715 24.72C43.8381 24.4867 43.5015 24.1633 43.2615 23.75C43.0281 23.3367 42.9115 22.87 42.9115 22.35C42.9115 21.8367 43.0248 21.3733 43.2515 20.96C43.4848 20.5467 43.8015 20.2267 44.2015 20C44.6081 19.7667 45.0648 19.65 45.5715 19.65C46.0781 19.65 46.5281 19.7667 46.9215 20C47.3215 20.2267 47.6315 20.5467 47.8515 20.96C48.0781 21.3733 48.1915 21.8467 48.1915 22.38ZM45.5715 20.46C45.1115 20.46 44.7248 20.6 44.4115 20.88C44.1048 21.16 43.9248 21.5267 43.8715 21.98H47.2715C47.2181 21.5333 47.0348 21.17 46.7215 20.89C46.4148 20.6033 46.0315 20.46 45.5715 20.46Z" fill="#30489C"/>
<path d="M15.0305 15.0322V124.968C15.0305 128.834 18.1645 131.968 22.0305 131.968H140.385" stroke="#30489C"/>
<path d="M129.861 76C130.413 76 130.861 75.5523 130.861 75C130.861 74.4477 130.413 74 129.861 74L129.861 76ZM129.861 74L126.57 74L126.57 76L129.861 76L129.861 74ZM119.988 74L113.406 74L113.406 76L119.988 76L119.988 74ZM106.825 74L100.243 74L100.243 76L106.825 76L106.825 74ZM93.6615 74L87.0798 74L87.0798 76L93.6615 76L93.6615 74ZM80.4982 74L73.9165 74L73.9165 76L80.4982 76L80.4982 74ZM67.3349 74L60.7532 74L60.7532 76L67.3349 76L67.3349 74ZM54.1716 74L47.5899 74L47.5899 76L54.1716 76L54.1716 74ZM41.0083 74L34.4266 74L34.4266 76L41.0083 76L41.0083 74ZM27.845 74L24.5541 74L24.5541 76L27.845 76L27.845 74Z" fill="#30489C"/>
</svg>
