<svg width="156" height="147" viewBox="0 0 156 147" fill="none" xmlns="http://www.w3.org/2000/svg">
<rect x="0.5" y="0.5" width="154.419" height="146" rx="7.5" fill="white" stroke="#30489C"/>
<path d="M106.096 122.751C106.46 123.166 107.051 123.166 107.416 122.751C107.78 122.336 107.78 121.664 107.416 121.249L106.096 122.751ZM107.416 121.249L105.111 118.624L103.791 120.126L106.096 122.751L107.416 121.249ZM100.501 113.374L95.8913 108.124L94.5717 109.626L99.1815 114.876L100.501 113.374ZM91.2816 102.874L86.6718 97.6236L85.3522 99.1264L89.962 104.376L91.2816 102.874ZM82.0621 92.3736L77.4524 87.1236L76.1328 88.6264L80.7425 93.8764L82.0621 92.3736ZM72.8426 81.8736L68.2329 76.6236L66.9133 78.1264L71.523 83.3764L72.8426 81.8736ZM63.6232 71.3736L59.0134 66.1236L57.6938 67.6264L62.3036 72.8764L63.6232 71.3736ZM54.4037 60.8736L49.7939 55.6236L48.4743 57.1264L53.0841 62.3764L54.4037 60.8736ZM45.1842 50.3736L40.5745 45.1236L39.2549 46.6264L43.8646 51.8764L45.1842 50.3736ZM35.9647 39.8736L33.6599 37.2486L32.3403 38.7514L34.6451 41.3764L35.9647 39.8736Z" fill="#30489C"/>
<path d="M118.485 115.87H116.085V115H121.875V115.87H119.475V122H118.485V115.87ZM122.697 116.7H123.657V122H122.697V116.7ZM123.177 115.68C122.99 115.68 122.833 115.62 122.707 115.5C122.587 115.38 122.527 115.233 122.527 115.06C122.527 114.887 122.587 114.74 122.707 114.62C122.833 114.493 122.99 114.43 123.177 114.43C123.363 114.43 123.517 114.49 123.637 114.61C123.763 114.723 123.827 114.867 123.827 115.04C123.827 115.22 123.763 115.373 123.637 115.5C123.517 115.62 123.363 115.68 123.177 115.68ZM132.12 116.65C132.786 116.65 133.313 116.843 133.7 117.23C134.093 117.617 134.29 118.19 134.29 118.95V122H133.33V119.06C133.33 118.547 133.21 118.16 132.97 117.9C132.736 117.64 132.4 117.51 131.96 117.51C131.473 117.51 131.086 117.663 130.8 117.97C130.513 118.27 130.37 118.703 130.37 119.27V122H129.41V119.06C129.41 118.547 129.29 118.16 129.05 117.9C128.816 117.64 128.48 117.51 128.04 117.51C127.553 117.51 127.166 117.663 126.88 117.97C126.593 118.27 126.45 118.703 126.45 119.27V122H125.49V116.7H126.41V117.49C126.603 117.217 126.856 117.01 127.17 116.87C127.483 116.723 127.84 116.65 128.24 116.65C128.653 116.65 129.02 116.733 129.34 116.9C129.66 117.067 129.906 117.31 130.08 117.63C130.28 117.323 130.556 117.083 130.91 116.91C131.27 116.737 131.673 116.65 132.12 116.65ZM140.875 119.38C140.875 119.453 140.869 119.55 140.855 119.67H136.555C136.615 120.137 136.819 120.513 137.165 120.8C137.519 121.08 137.955 121.22 138.475 121.22C139.109 121.22 139.619 121.007 140.005 120.58L140.535 121.2C140.295 121.48 139.995 121.693 139.635 121.84C139.282 121.987 138.885 122.06 138.445 122.06C137.885 122.06 137.389 121.947 136.955 121.72C136.522 121.487 136.185 121.163 135.945 120.75C135.712 120.337 135.595 119.87 135.595 119.35C135.595 118.837 135.709 118.373 135.935 117.96C136.169 117.547 136.485 117.227 136.885 117C137.292 116.767 137.749 116.65 138.255 116.65C138.762 116.65 139.212 116.767 139.605 117C140.005 117.227 140.315 117.547 140.535 117.96C140.762 118.373 140.875 118.847 140.875 119.38ZM138.255 117.46C137.795 117.46 137.409 117.6 137.095 117.88C136.789 118.16 136.609 118.527 136.555 118.98H139.955C139.902 118.533 139.719 118.17 139.405 117.89C139.099 117.603 138.715 117.46 138.255 117.46Z" fill="#30489C"/>
<path d="M26.8246 18C27.7312 18 28.4446 18.2167 28.9646 18.65C29.4846 19.0833 29.7446 19.68 29.7446 20.44C29.7446 21.2 29.4846 21.7967 28.9646 22.23C28.4446 22.6633 27.7312 22.88 26.8246 22.88H25.0946V25H24.0946V18H26.8246ZM26.7946 22.01C27.4279 22.01 27.9112 21.8767 28.2446 21.61C28.5779 21.3367 28.7446 20.9467 28.7446 20.44C28.7446 19.9333 28.5779 19.5467 28.2446 19.28C27.9112 19.0067 27.4279 18.87 26.7946 18.87H25.0946V22.01H26.7946ZM31.9058 20.59C32.0725 20.2833 32.3191 20.05 32.6458 19.89C32.9725 19.73 33.3691 19.65 33.8358 19.65V20.58C33.7825 20.5733 33.7091 20.57 33.6158 20.57C33.0958 20.57 32.6858 20.7267 32.3858 21.04C32.0925 21.3467 31.9458 21.7867 31.9458 22.36V25H30.9858V19.7H31.9058V20.59ZM35.019 19.7H35.979V25H35.019V19.7ZM35.499 18.68C35.3123 18.68 35.1557 18.62 35.029 18.5C34.909 18.38 34.849 18.2333 34.849 18.06C34.849 17.8867 34.909 17.74 35.029 17.62C35.1557 17.4933 35.3123 17.43 35.499 17.43C35.6857 17.43 35.839 17.49 35.959 17.61C36.0857 17.7233 36.149 17.8667 36.149 18.04C36.149 18.22 36.0857 18.3733 35.959 18.5C35.839 18.62 35.6857 18.68 35.499 18.68ZM40.122 25.06C39.582 25.06 39.0986 24.9433 38.672 24.71C38.252 24.4767 37.922 24.1567 37.682 23.75C37.442 23.3367 37.322 22.87 37.322 22.35C37.322 21.83 37.442 21.3667 37.682 20.96C37.922 20.5467 38.252 20.2267 38.672 20C39.0986 19.7667 39.582 19.65 40.122 19.65C40.602 19.65 41.0286 19.7467 41.402 19.94C41.782 20.1333 42.0753 20.4133 42.282 20.78L41.552 21.25C41.3853 20.9967 41.1786 20.8067 40.932 20.68C40.6853 20.5533 40.412 20.49 40.112 20.49C39.7653 20.49 39.452 20.5667 39.172 20.72C38.8986 20.8733 38.682 21.0933 38.522 21.38C38.3686 21.66 38.292 21.9833 38.292 22.35C38.292 22.7233 38.3686 23.0533 38.522 23.34C38.682 23.62 38.8986 23.8367 39.172 23.99C39.452 24.1433 39.7653 24.22 40.112 24.22C40.412 24.22 40.6853 24.1567 40.932 24.03C41.1786 23.9033 41.3853 23.7133 41.552 23.46L42.282 23.92C42.0753 24.2867 41.782 24.57 41.402 24.77C41.0286 24.9633 40.602 25.06 40.122 25.06ZM48.2367 22.38C48.2367 22.4533 48.2301 22.55 48.2167 22.67H43.9167C43.9767 23.1367 44.1801 23.5133 44.5267 23.8C44.8801 24.08 45.3167 24.22 45.8367 24.22C46.4701 24.22 46.9801 24.0067 47.3667 23.58L47.8967 24.2C47.6567 24.48 47.3567 24.6933 46.9967 24.84C46.6434 24.9867 46.2467 25.06 45.8067 25.06C45.2467 25.06 44.7501 24.9467 44.3167 24.72C43.8834 24.4867 43.5467 24.1633 43.3067 23.75C43.0734 23.3367 42.9567 22.87 42.9567 22.35C42.9567 21.8367 43.0701 21.3733 43.2967 20.96C43.5301 20.5467 43.8467 20.2267 44.2467 20C44.6534 19.7667 45.1101 19.65 45.6167 19.65C46.1234 19.65 46.5734 19.7667 46.9667 20C47.3667 20.2267 47.6767 20.5467 47.8967 20.96C48.1234 21.3733 48.2367 21.8467 48.2367 22.38ZM45.6167 20.46C45.1567 20.46 44.7701 20.6 44.4567 20.88C44.1501 21.16 43.9701 21.5267 43.9167 21.98H47.3167C47.2634 21.5333 47.0801 21.17 46.7667 20.89C46.4601 20.6033 46.0767 20.46 45.6167 20.46Z" fill="#30489C"/>
<path d="M15.0309 15.0322V124.968C15.0309 128.834 18.1649 131.968 22.0309 131.968H140.386" stroke="#30489C"/>
</svg>
