<!-- <svg
  xmlns="http://www.w3.org/2000/svg"
  className=""
  fill="#30489C"
  viewBox="0 0 24 24"
  stroke="#30489C"
  strokeWidth="1"
>
  <path
    strokeLinecap="round"
    strokeLinejoin="round"
    d="M8 16H6a2 2 0 01-2-2V6a2 2 0 012-2h8a2 2 0 012 2v2m-6 12h8a2 2 0 002-2v-8a2 2 0 00-2-2h-8a2 2 0 00-2 2v8a2 2 0 002 2z"
  />
</svg> -->

<svg width="63" height="62" viewBox="0 0 63 62" fill="none" xmlns="http://www.w3.org/2000/svg">
<g clip-path="url(#clip0_4809_3001)">
<path d="M31.4573 10.8857C17.3315 10.8857 5.86719 22.2863 5.86719 36.3333C5.86719 50.3804 17.3315 61.7809 31.4573 61.7809C45.583 61.7809 57.0473 50.3804 57.0473 36.3333C57.0473 22.2863 45.583 10.8857 31.4573 10.8857ZM31.4573 18.52C35.7052 18.52 39.1343 21.93 39.1343 26.1543C39.1343 30.3786 35.7052 33.7886 31.4573 33.7886C27.2093 33.7886 23.7802 30.3786 23.7802 26.1543C23.7802 21.93 27.2093 18.52 31.4573 18.52ZM31.4573 54.6556C25.0597 54.6556 19.4043 51.3983 16.1032 46.4615C16.18 41.3974 26.3392 38.6236 31.4573 38.6236C36.5497 38.6236 46.7345 41.3974 46.8113 46.4615C43.5102 51.3983 37.8548 54.6556 31.4573 54.6556Z" fill="#1F1A17"/>
</g>
<defs>
<clipPath id="clip0_4809_3001">
<rect width="61.4162" height="61.0742" fill="white" transform="translate(0.75 0.688965)"/>
</clipPath>
</defs>
</svg>
