<?xml version="1.0" standalone="no"?>
<!DOCTYPE svg PUBLIC "-//W3C//DTD SVG 20010904//EN"
 "http://www.w3.org/TR/2001/REC-SVG-20010904/DTD/svg10.dtd">
<svg version="1.0" xmlns="http://www.w3.org/2000/svg"
 width="746.000000pt" height="746.000000pt" viewBox="0 0 746.000000 746.000000"
 preserveAspectRatio="xMidYMid meet">
<metadata>
Created by potrace 1.14, written by Peter Selinger 2001-2017
</metadata>
<g transform="translate(0.000000,746.000000) scale(0.100000,-0.100000)"
fill="#000000" stroke="none">
<path d="M2452 4363 c-51 -25 -77 -69 -77 -130 0 -91 65 -148 170 -148 100 0
164 52 172 142 6 58 -23 108 -77 135 -45 23 -143 23 -188 1z"/>
<path d="M930 3705 l0 -525 140 0 140 0 2 265 3 264 130 -214 130 -214 66 -1
66 0 134 226 134 225 3 -275 2 -276 135 0 135 0 0 525 0 525 -119 0 c-119 0
-120 0 -139 -27 -10 -16 -87 -145 -172 -288 -84 -143 -158 -266 -165 -273 -12
-13 -25 7 -310 476 l-68 112 -124 0 -123 0 0 -525z"/>
<path d="M2940 3705 l0 -525 145 0 145 0 2 276 3 277 229 -277 229 -276 123 0
124 0 0 525 0 525 -145 0 -145 0 0 -275 c0 -151 -3 -275 -7 -274 -5 0 -33 31
-63 68 -30 38 -131 161 -225 274 l-170 206 -122 1 -123 0 0 -525z"/>
<path d="M4200 3705 l0 -525 150 0 150 0 0 180 0 180 230 0 230 0 0 115 0 115
-230 0 -230 0 0 115 0 115 260 0 260 0 0 115 0 115 -410 0 -410 0 0 -525z"/>
<path d="M5122 4113 l3 -118 163 -3 162 -2 0 -405 0 -405 145 0 145 0 0 405 0
405 160 0 160 0 0 120 0 120 -470 0 -471 0 3 -117z"/>
<path d="M2400 3585 l0 -405 145 0 145 0 0 405 0 405 -145 0 -145 0 0 -405z"/>
<path d="M6247 3479 c-53 -28 -77 -71 -77 -139 0 -110 66 -174 173 -167 129 8
198 136 135 248 -41 73 -151 101 -231 58z"/>
</g>
</svg>
